<svg viewBox="0 0 100 100" xmlns="http://www.w3.org/2000/svg"><g fill-rule="evenodd"><path d="M67.277 70.524c-12.29 7.096-28.033 2.838-35.163-9.512S29.168 32.9 41.458 25.805c3.165-1.828 5.15-2.01 5.15-2.01 2.677-.68 4.21.911 3.506 3.58 0 0-1.65 4.409-1.631 11.073.011 3.93 1.116 7.935 3.08 11.336 2.045 3.544 5.323 6.886 8.873 8.891 5.635 3.184 9.808 3.717 9.808 3.717 2.684.625 3.324 2.756 1.356 4.691 0 0-1.158 1.614-4.323 3.44z" fill="#FFD275" fill-opacity=".147" stroke="#FFD275" stroke-width="3"/><path fill="none" d="M0 0h100v100H0z"/></g></svg>
