<svg xmlns="http://www.w3.org/2000/svg" width="100" height="100" xmlns:xlink="http://www.w3.org/1999/xlink"><defs><path id="a" d="M30.3 60C20.8 60 13 52 13 42.6c0-1.7.3-3.4.7-5 2-7 8.3-12 15.8-12.4C33.3 17.8 41 13 49.2 13c10.5 0 19.6 7.5 21.7 17.7 7.3 1 13 7 13 14.8 0 8-6.4 14.5-14.5 14.5H30.3z"/></defs><g fill="none" fill-rule="evenodd"><path fill="#FFD275" fill-opacity=".1" stroke="#FFD275" stroke-width="3" d="M36.6 24c7.4 6.7 8 18 1.3 25.4-6.8 7.4-18 8-25.5 1.4C10.5 49 11 49 11 49c-1.6-2.2-.5-4.2 2.2-4.4 0 0 1.8.3 6.2-1.2 2.6-.8 5-2.4 6.8-4.4 2-2.2 3.5-5 4-7.8 1-4.5.4-5.8.4-5.8-.2-2.8 1.7-4 4-2.7 0 0 0-.3 2 1.4z"/><g transform="translate(8 20)"><use fill="#F5F6F6" xlink:href="#a"/><path stroke="#BBC0C4" stroke-width="3" d="M30.3 58.5h39.2c7.2 0 13-5.8 13-13 0-6.8-5-12.4-11.8-13.3h-1l-.3-1.2c-2-9.5-10.4-16.5-20.2-16.5-7.7 0-14.8 4.4-18.4 11.4l-.4.7h-1c-6.6.3-12.3 5-14.2 11.3-.5 1.5-.7 3-.7 4.6 0 8.7 7 16 15.8 16z"/></g></g></svg>