<svg xmlns="http://www.w3.org/2000/svg" width="100" height="100" xmlns:xlink="http://www.w3.org/1999/xlink"><defs><path id="a" d="M49.5 25C35.5 25 24 36.4 24 50.5 24 64.5 35.4 76 49.5 76 63.5 76 75 64.6 75 50.5 75 36.5 63.6 25 49.5 25z"/></defs><g fill="none" fill-rule="evenodd"><use fill="#FFAD00" fill-opacity=".1" xlink:href="#a"/><path stroke="#FFAC00" stroke-width="4" d="M49.5 27C36.5 27 26 37.5 26 50.5S36.5 74 49.5 74 73 63.5 73 50.5 62.5 27 49.5 27z"/><path stroke="#FFAC00" stroke-width="4" d="M50.5 18V9M82 50.5h9M9 51h9M20 80l7-7M72 28l7-7M28 28l-8-8M80 80l-8-8M50.5 91v-9" stroke-linecap="round"/></g></svg>